HIERARCHY
ROOT Hips
{
	OFFSET -3.958830 18.904000 13.208200
	CHANNELS 6 Xposition Yposition Zposition Zrotation Yrotation Xrotation 
	JOINT LHipJoint
	{
		OFFSET 0.000000 0.000000 0.000000
		CHANNELS 3 Zrotation Yrotation Xrotation
		JOINT LeftUpLeg
		{
			OFFSET 1.800000 -1.400000 0.085000
			CHANNELS 3 Zrotation Yrotation Xrotation
			JOINT LeftLeg
			{
				OFFSET 2.215000 -6.000000 0.000000
				CHANNELS 3 Zrotation Yrotation Xrotation
				JOINT LeftFoot
				{
					OFFSET 2.500000 -6.900000 0.000000
					CHANNELS 3 Zrotation Yrotation Xrotation
					JOINT LeftToeBase
					{
						OFFSET 0.200000 -0.500000 1.950000
						CHANNELS 3 Zrotation Yrotation Xrotation
						End Site
						{
							OFFSET 0.000000 0.000000 0.000000
						}
					}
				}
			}
		}
	}
	JOINT RHipJoint
	{
		OFFSET 0.000000 0.000000 0.000000
		CHANNELS 3 Zrotation Yrotation Xrotation
		JOINT RightUpLeg
		{
			OFFSET -1.800000 -1.400000 0.085000
			CHANNELS 3 Zrotation Yrotation Xrotation
			JOINT RightLeg
			{
				OFFSET -2.215000 -6.000000 0.000000
				CHANNELS 3 Zrotation Yrotation Xrotation
				JOINT RightFoot
				{
					OFFSET -2.500000 -6.900000 0.000000
					CHANNELS 3 Zrotation Yrotation Xrotation
					JOINT RightToeBase
					{
						OFFSET -0.200000 -0.500000 1.950000
						CHANNELS 3 Zrotation Yrotation Xrotation
						End Site
						{
							OFFSET 0.000000 0.000000 0.000000
						}
					}
				}
			}
		}
	}
	JOINT LowerBack
	{
		OFFSET 0.000000 0.000000 0.000000
		CHANNELS 3 Zrotation Yrotation Xrotation
		JOINT Spine
		{
			OFFSET -0.087000 1.940000 -0.288900
			CHANNELS 3 Zrotation Yrotation Xrotation
			JOINT Spine1
			{
				OFFSET 0.000000 1.950000 0.060000
				CHANNELS 3 Zrotation Yrotation Xrotation
				JOINT Neck
				{
					OFFSET 0.000000 0.000000 0.000000
					CHANNELS 3 Zrotation Yrotation Xrotation
					JOINT Neck1
					{
						OFFSET 0.000000 1.600000 0.340000
						CHANNELS 3 Zrotation Yrotation Xrotation
						JOINT Head
						{
							OFFSET 0.000000 1.667000 -0.240000
							CHANNELS 3 Zrotation Yrotation Xrotation
							End Site
							{
								OFFSET 0.000000 0.000000 0.000000
							}
						}
					}
				}
				JOINT LeftShoulder
				{
					OFFSET 0.000000 0.000000 0.000000
					CHANNELS 3 Zrotation Yrotation Xrotation
					JOINT LeftArm
					{
						OFFSET 2.700000 1.550000 -0.730000
						CHANNELS 3 Zrotation Yrotation Xrotation
						JOINT LeftForeArm
						{
							OFFSET 5.450000 0.000000 0.000000
							CHANNELS 3 Zrotation Yrotation Xrotation
							JOINT LeftHand
							{
								OFFSET 3.450000 0.000000 0.000000
								CHANNELS 3 Zrotation Yrotation Xrotation
								JOINT LeftHandIndex1
								{
									OFFSET 0.750000 0.000000 0.000000
									CHANNELS 3 Zrotation Yrotation Xrotation
									End Site
									{
										OFFSET 0.000000 0.000000 0.000000
									}
								}
							}
						}
					}
				}
				JOINT RightShoulder
				{
					OFFSET 0.000000 0.000000 0.000000
					CHANNELS 3 Zrotation Yrotation Xrotation
					JOINT RightArm
					{
						OFFSET -2.700000 1.550000 -0.730000
						CHANNELS 3 Zrotation Yrotation Xrotation
						JOINT RightForeArm
						{
							OFFSET -5.450000 0.000000 0.000000
							CHANNELS 3 Zrotation Yrotation Xrotation
							JOINT RightHand
							{
								OFFSET -3.450000 0.000000 0.000000
								CHANNELS 3 Zrotation Yrotation Xrotation
								JOINT RightHandIndex1
								{
									OFFSET -0.750000 0.000000 0.000000
									CHANNELS 3 Zrotation Yrotation Xrotation
									End Site
									{
										OFFSET 0.000000 0.000000 0.000000
									}
								}
							}
						}
					}
				}
			}
		}
	}
}
MOTION
Frames: 14
Frame Time: 0.016667
-0.922190 17.328990 -1.415510 -2.853048 -5.019303 -1.173724 -15.201208 13.104384 2.321404 12.852550 -1.378238 -11.257588 -10.438540 10.198955 24.103235 -0.103032 6.048221 2.575074 0.560850 0.191940 0.532120 18.380481 -9.406022 4.249812 -21.563050 5.126340 -37.917701 15.532822 -20.873770 56.111761 -1.548774 -10.410508 1.035888 0.086450 0.117890 -0.010140 -3.635639 -2.944839 -8.123316 7.879288 -3.481124 12.956103 -2.436138 -2.650131 6.098380 0.820441 -4.665212 -9.115093 -14.774304 8.637502 49.425677 -2.852640 4.900120 -2.195150 -15.243901 -4.389949 2.336501 -47.444395 -10.072638 -2.766137 -22.425280 -33.412706 4.284891 -3.587615 2.932028 0.516630 0.066900 -0.103890 0.173210 13.902452 7.053842 4.391232 58.892672 6.382624 -8.407203 24.500100 33.379731 3.606999 2.103351 -1.475705 -0.180780 0.245490 -0.187720 -0.320500 
-0.940380 17.327610 -1.407700 -2.934919 -5.409422 -1.203017 -15.205780 13.142394 2.353431 13.275064 -1.316480 -11.024999 -10.776260 10.336384 23.906648 -0.069025 6.110852 2.571270 0.564590 0.198760 0.529070 18.370575 -9.432092 4.174798 -21.277926 5.064595 -37.922729 14.464350 -19.965137 55.680237 -1.475272 -10.173006 1.110440 0.091530 0.133390 -0.013090 -3.611740 -2.992634 -8.099297 7.943479 -3.585516 13.062327 -2.396998 -2.717676 6.086807 0.815856 -5.043661 -9.019346 -15.449017 8.859965 48.395477 -2.996920 4.861880 -1.870750 -15.696695 -3.974430 2.170274 -46.748656 -9.566479 -3.000822 -22.137555 -33.862978 4.323484 -3.585048 2.941934 0.495570 0.076050 -0.111980 0.192320 14.337072 6.915567 4.445263 56.529965 5.725774 -8.246440 29.142344 34.811923 5.133642 2.107042 -1.537624 -0.179830 0.250810 -0.203950 -0.307270 
-0.986060 17.326420 -1.392220 -2.614818 -5.965535 -1.369870 -15.232299 13.230401 2.421060 13.600630 -1.237151 -10.583800 -11.295185 10.561525 23.758187 -0.071744 6.239197 2.537263 0.555230 0.180470 0.522670 18.331302 -9.536112 3.971719 -20.965366 4.666501 -37.546301 11.980820 -18.048335 54.721454 -1.310306 -9.654078 1.261945 0.096780 0.150740 -0.024730 -3.508570 -3.068868 -8.018919 7.205581 -3.601950 12.838615 -2.486681 -2.754902 6.547948 0.859056 -5.248636 -9.023974 -15.818426 9.177874 47.671129 -3.180740 5.037950 -1.723110 -15.820390 -3.703065 2.095734 -45.401356 -8.754930 -3.435889 -21.225658 -34.492140 4.186024 -3.588829 2.928527 0.501720 0.088460 -0.133940 0.191990 14.398518 6.795421 4.640595 54.690020 4.834439 -8.318481 34.994374 37.024184 7.257798 2.083803 -1.601083 -0.207160 0.264270 -0.195280 -0.318000 
-1.041210 17.323160 -1.371950 -2.163307 -7.018536 -1.517981 -15.246513 13.367921 2.517368 13.806533 -1.079282 -9.915678 -11.842741 10.676143 23.160676 -0.033184 6.286324 2.534268 0.567670 0.197570 0.526410 18.287418 -9.755982 3.650280 -20.036160 4.182588 -36.786605 8.236429 -14.883945 52.349159 -1.057839 -8.695616 1.545472 0.105460 0.154350 -0.017040 -3.407423 -3.081748 -7.868880 6.453796 -3.475050 12.436279 -2.821311 -2.623502 7.124010 0.934719 -5.563992 -9.003329 -16.313785 9.564734 46.479625 -3.425470 5.339110 -1.532100 -16.095601 -3.289830 1.983763 -43.808148 -7.748772 -4.050272 -19.493963 -35.499387 3.894621 -3.578379 2.953281 0.479370 0.097070 -0.136720 0.205890 14.503793 6.661784 4.889207 52.482914 3.682976 -8.233632 42.773369 39.509046 10.327463 2.083414 -1.711795 -0.195810 0.251410 -0.213300 -0.307660 
-1.100120 17.315410 -1.342300 -1.750924 -8.130607 -1.410302 -15.247395 13.530250 2.619710 13.976595 -0.897589 -9.319235 -12.201829 10.613740 22.180565 -0.013718 6.271137 2.562402 0.549440 0.196290 0.492850 18.247583 -10.057386 3.232651 -18.860729 3.435701 -35.377987 4.334557 -11.292023 47.619963 -0.724299 -7.365450 1.976197 0.110970 0.196050 -0.016350 -3.327007 -3.042311 -7.624721 5.885469 -3.375638 11.377972 -3.152279 -2.530045 7.844879 0.902938 -5.905942 -8.828205 -16.642413 9.866379 44.684866 -3.598430 5.549250 -0.924480 -16.182022 -2.687299 1.823711 -42.461653 -6.814297 -4.288174 -17.492858 -34.695224 3.288657 -3.611002 2.953469 0.431420 0.134070 -0.167560 0.218760 14.599362 6.336200 5.000048 50.094111 2.712792 -7.820158 50.565865 41.597463 13.739060 2.075310 -1.810370 -0.196480 0.256580 -0.208400 -0.285930 
-1.156270 17.296820 -1.317930 -1.246679 -9.108974 -1.199415 -15.250243 13.706162 2.693474 13.882629 -0.795919 -9.173293 -11.966485 10.468414 21.849481 -0.026560 6.259748 2.595142 0.529480 0.172580 0.471440 18.202035 -10.373524 2.816938 -17.945280 2.515719 -33.451535 1.104308 -8.257992 41.388682 -0.418874 -5.984565 2.441553 0.116410 0.251310 -0.009530 -3.231705 -2.991892 -7.348349 5.203321 -3.098651 10.130404 -3.305726 -2.263752 8.645926 0.847428 -6.073984 -8.538168 -16.519238 9.909077 42.808637 -3.700950 5.635970 -0.196050 -16.141180 -1.872457 1.503577 -41.265868 -6.220545 -4.284121 -14.983506 -33.209089 2.512062 -3.661291 2.939294 0.394420 0.178050 -0.207410 0.230890 14.613244 5.702063 5.104158 47.608235 1.425994 -7.386640 59.120688 44.162705 18.120215 2.058449 -1.914958 -0.215570 0.268300 -0.198440 -0.274820 
-1.217170 17.273140 -1.296880 -0.272070 -9.550172 -0.959265 -15.302116 13.866105 2.776619 13.535933 -0.766747 -9.214947 -12.070276 10.430816 21.628061 -0.026854 6.280159 2.595956 0.494300 0.130850 0.437810 18.120838 -10.567324 2.463418 -18.205746 1.443005 -31.342207 -0.867383 -6.508209 35.759174 -0.214418 -4.995703 2.781629 0.103330 0.287260 0.004540 -3.019821 -3.124719 -7.145511 3.554553 -2.930559 8.998156 -3.144362 -2.128698 9.286570 0.837504 -6.341801 -8.586716 -16.790598 10.028444 41.139845 -3.924610 5.661850 0.475000 -15.827308 -1.195889 1.381856 -40.547972 -5.225130 -4.531850 -12.103206 -32.115818 1.686675 -3.704734 2.937615 0.364210 0.211410 -0.243320 0.221510 14.384361 5.369510 5.562779 45.659957 -0.405884 -7.059306 69.605850 47.025700 24.108169 2.051197 -2.011783 -0.222560 0.257710 -0.167430 -0.269210 
-1.265670 17.237840 -1.270660 0.642071 -9.413932 -0.374026 -15.347393 13.912478 2.810266 13.204490 -0.824310 -9.656555 -12.247788 10.439956 21.550463 -0.049566 6.326335 2.613136 0.434500 0.064960 0.388850 18.073118 -10.667601 2.220804 -19.396737 0.489002 -29.597639 -1.518217 -5.812570 31.397029 -0.075538 -4.449856 3.000517 0.095040 0.364840 -0.012370 -2.887165 -3.174910 -6.959251 2.382428 -2.804559 7.374818 -3.110941 -2.008014 10.077919 0.882761 -6.271185 -8.525266 -16.122461 9.736231 39.315525 -4.150650 5.704200 1.567370 -14.905603 -0.294375 1.183346 -40.752610 -4.768730 -4.625681 -9.366170 -31.104060 0.963490 -3.771587 2.886178 0.332070 0.269500 -0.307280 0.224850 13.400839 4.499114 5.935480 44.926091 -2.176551 -6.625483 79.846976 48.897341 30.312724 2.026465 -2.078556 -0.274570 0.293900 -0.133570 -0.266970 
-1.298210 17.215490 -1.255220 1.002444 -8.968463 0.237596 -15.331952 13.866608 2.833098 13.424702 -0.929359 -10.272887 -12.496646 10.455592 21.411066 -0.050331 6.342126 2.619887 0.402210 0.031840 0.360660 18.085164 -10.747543 2.100348 -20.426859 -0.063570 -28.270826 -1.464608 -5.623670 28.666983 -0.006271 -4.217468 3.094310 0.088630 0.403240 -0.012700 -2.938946 -3.044410 -6.872938 2.725324 -2.784340 6.504774 -3.879236 -1.908289 10.512144 1.140540 -6.095569 -8.465005 -15.155547 9.193841 37.610700 -4.506150 5.747850 2.511770 -15.046754 0.121383 0.962296 -40.128643 -3.847934 -5.137421 -7.296457 -31.431502 0.532859 -3.805809 2.892427 0.291730 0.309610 -0.348770 0.226810 12.965722 3.865802 6.349173 44.120343 -4.170394 -6.375588 89.507179 49.623251 36.156329 2.015861 -2.158134 -0.288950 0.288070 -0.122740 -0.260780 
-1.322310 17.205050 -1.254570 0.598524 -8.074641 1.067279 -15.263863 13.728084 2.878946 14.415371 -1.129154 -11.309875 -13.012999 10.525377 21.164573 -0.037769 6.390131 2.598126 0.381640 -0.006160 0.341660 18.150376 -10.798333 2.074177 -20.735890 -0.206085 -27.505007 -0.643197 -5.834103 27.276967 0.018131 -4.185593 3.105838 0.063990 0.422120 0.031430 -3.154516 -2.764245 -6.871136 4.730035 -2.831844 6.139463 -5.268461 -1.832366 10.680859 1.608022 -5.917531 -8.514382 -14.267103 8.284427 36.099505 -5.502950 5.729140 3.582410 -15.566379 0.129732 0.709994 -39.540881 -3.266330 -5.685023 -5.097977 -32.205790 0.060499 -3.835155 2.937573 0.258030 0.348380 -0.369260 0.232320 12.411461 3.470674 6.946147 44.271965 -6.305456 -6.481509 97.881350 49.564360 41.133781 1.995522 -2.252331 -0.271990 0.236850 -0.117850 -0.253730 
-1.333700 17.215590 -1.249540 0.263340 -6.595166 1.797042 -15.212796 13.591964 2.921281 15.248875 -1.268867 -12.123384 -13.515212 10.455249 20.398353 -0.042146 6.388578 2.606796 0.322300 -0.053820 0.284870 18.203984 -10.815493 2.068029 -21.010925 -0.301511 -26.818656 0.603494 -6.224285 26.345551 0.045393 -4.229491 3.103321 0.040210 0.483220 0.047870 -3.334170 -2.538094 -6.878881 6.508247 -2.940782 5.995150 -6.177647 -1.894689 10.619747 1.949173 -5.718936 -8.252997 -13.375345 7.538311 34.720028 -6.169530 5.571970 4.232630 -16.104480 0.816551 0.180679 -39.778188 -3.083360 -6.079752 -3.880572 -33.339411 -0.192061 -3.900256 2.930430 0.211290 0.403040 -0.405210 0.229670 12.147738 2.372623 7.210081 43.723353 -8.348528 -6.433314 105.459569 50.090582 47.029221 1.972379 -2.279797 -0.277870 0.245390 -0.079670 -0.232230 
-1.331420 17.240980 -1.242650 -0.013557 -4.788149 2.631009 -15.170333 13.429467 2.953732 15.730107 -1.423999 -13.025263 -13.931972 10.243028 19.384283 -0.039906 6.284529 2.646099 0.292780 -0.071990 0.258260 18.255448 -10.817634 2.101822 -21.272807 -0.312465 -26.606496 1.924829 -6.680003 25.936434 0.059908 -4.332275 3.078433 0.026890 0.508440 0.058090 -3.498866 -2.269564 -6.894695 8.083786 -2.913093 5.704031 -6.718205 -1.850485 10.558078 2.324862 -5.390109 -7.994057 -12.257565 6.391151 33.473938 -6.941270 5.242780 4.857060 -16.236041 1.684151 -0.201196 -41.190191 -2.615009 -6.892543 -2.771218 -35.544352 -0.495356 -3.927825 2.954193 0.158830 0.439910 -0.429500 0.230770 11.454994 1.135681 7.323833 43.491095 -10.010837 -6.289022 110.470736 49.067882 49.918918 1.939773 -2.345311 -0.266150 0.232300 -0.073040 -0.215210 
-1.319290 17.277380 -1.244770 -0.253233 -2.546562 3.065243 -15.130159 13.337379 2.969833 15.884460 -1.579090 -13.817340 -13.755648 9.902761 18.809792 -0.064681 6.096278 2.688088 0.324380 -0.034490 0.286590 18.287117 -10.858845 2.135396 -21.531434 -0.364107 -25.975872 3.217692 -7.091527 25.424865 0.027968 -4.387884 3.053210 0.029760 0.462460 0.066930 -3.631066 -2.056295 -6.945490 9.314772 -3.011301 5.936014 -7.076641 -1.927412 10.805233 2.726323 -4.848611 -8.063136 -11.049692 5.148457 33.351571 -7.290610 4.517880 3.805680 -16.150708 1.989051 -0.154122 -42.594078 -1.319850 -8.260463 -2.280774 -38.654444 -0.778220 -3.869308 2.982383 0.173530 0.410990 -0.392510 0.231110 10.556817 0.368282 7.587275 43.663131 -11.518816 -6.789547 114.745715 49.426717 53.648951 1.932072 -2.356629 -0.235820 0.215730 -0.095630 -0.215410 
-1.300180 17.307800 -1.247830 -0.514973 0.331912 3.700488 -15.102240 13.230495 2.976133 15.861565 -1.812887 -15.052145 -13.329136 9.485343 18.403715 -0.109215 5.861667 2.745454 0.369610 0.021180 0.321220 18.311853 -10.896061 2.167441 -21.840825 -0.436871 -25.156709 4.671493 -7.482004 24.625560 -0.000247 -4.455072 3.017683 0.055410 0.413780 0.069210 -3.746254 -1.832331 -6.968778 10.328200 -3.129938 5.925573 -6.891200 -2.115839 11.076138 2.946289 -4.198100 -7.908185 -9.567386 3.552621 32.745968 -7.594120 3.502550 2.768800 -15.412697 3.044525 -0.172289 -44.196555 0.115014 -9.464494 -4.916960 -41.983346 -0.050115 -3.809834 3.053882 0.176000 0.384910 -0.364230 0.236050 9.403544 -1.176377 7.519764 43.465869 -12.952167 -7.134561 118.784366 49.893780 57.741229 1.914163 -2.393044 -0.210220 0.196350 -0.130420 -0.216380 
